<svg aria-roledescription="er" role="graphics-document document" viewBox="0 0 1148.8321533203125 850" height="850" xmlns="http://www.w3.org/2000/svg" width="1148.8321533203125" id="container"><rect width="100%" height="100%" fill="white"/><style>#container{font-family:"trebuchet ms",verdana,arial,sans-serif;font-size:16px;fill:#333;}#container .error-icon{fill:#552222;}#container .error-text{fill:#552222;stroke:#552222;}#container .edge-thickness-normal{stroke-width:2px;}#container .edge-thickness-thick{stroke-width:3.5px;}#container .edge-pattern-solid{stroke-dasharray:0;}#container .edge-pattern-dashed{stroke-dasharray:3;}#container .edge-pattern-dotted{stroke-dasharray:2;}#container .marker{fill:#333333;stroke:#333333;}#container .marker.cross{stroke:#333333;}#container svg{font-family:"trebuchet ms",verdana,arial,sans-serif;font-size:16px;}#container .entityBox{fill:#ECECFF;stroke:#9370DB;}#container .attributeBoxOdd{fill:#ffffff;stroke:#9370DB;}#container .attributeBoxEven{fill:#f2f2f2;stroke:#9370DB;}#container .relationshipLabelBox{fill:hsl(80, 100%, 96.2745098039%);opacity:0.7;background-color:hsl(80, 100%, 96.2745098039%);}#container .relationshipLabelBox rect{opacity:0.5;}#container .relationshipLine{stroke:#333333;}#container .entityTitleText{text-anchor:middle;font-size:18px;fill:#333;}#container #MD_PARENT_START{fill:#f5f5f5!important;stroke:#333333!important;stroke-width:1;}#container #MD_PARENT_END{fill:#f5f5f5!important;stroke:#333333!important;stroke-width:1;}#container :root{--mermaid-font-family:"trebuchet ms",verdana,arial,sans-serif;}</style><g></g><defs><marker orient="auto" markerHeight="240" markerWidth="190" refY="7" refX="0" id="MD_PARENT_START"><path d="M 18,7 L9,13 L1,7 L9,1 Z"></path></marker></defs><defs><marker orient="auto" markerHeight="28" markerWidth="20" refY="7" refX="19" id="MD_PARENT_END"><path d="M 18,7 L9,13 L1,7 L9,1 Z"></path></marker></defs><defs><marker orient="auto" markerHeight="18" markerWidth="18" refY="9" refX="0" id="ONLY_ONE_START"><path d="M9,0 L9,18 M15,0 L15,18" fill="none" stroke="gray"></path></marker></defs><defs><marker orient="auto" markerHeight="18" markerWidth="18" refY="9" refX="18" id="ONLY_ONE_END"><path d="M3,0 L3,18 M9,0 L9,18" fill="none" stroke="gray"></path></marker></defs><defs><marker orient="auto" markerHeight="18" markerWidth="30" refY="9" refX="0" id="ZERO_OR_ONE_START"><circle r="6" cy="9" cx="21" fill="white" stroke="gray"></circle><path d="M9,0 L9,18" fill="none" stroke="gray"></path></marker></defs><defs><marker orient="auto" markerHeight="18" markerWidth="30" refY="9" refX="30" id="ZERO_OR_ONE_END"><circle r="6" cy="9" cx="9" fill="white" stroke="gray"></circle><path d="M21,0 L21,18" fill="none" stroke="gray"></path></marker></defs><defs><marker orient="auto" markerHeight="36" markerWidth="45" refY="18" refX="18" id="ONE_OR_MORE_START"><path d="M0,18 Q 18,0 36,18 Q 18,36 0,18 M42,9 L42,27" fill="none" stroke="gray"></path></marker></defs><defs><marker orient="auto" markerHeight="36" markerWidth="45" refY="18" refX="27" id="ONE_OR_MORE_END"><path d="M3,9 L3,27 M9,18 Q27,0 45,18 Q27,36 9,18" fill="none" stroke="gray"></path></marker></defs><defs><marker orient="auto" markerHeight="36" markerWidth="57" refY="18" refX="18" id="ZERO_OR_MORE_START"><circle r="6" cy="18" cx="48" fill="white" stroke="gray"></circle><path d="M0,18 Q18,0 36,18 Q18,36 0,18" fill="none" stroke="gray"></path></marker></defs><defs><marker orient="auto" markerHeight="36" markerWidth="57" refY="18" refX="39" id="ZERO_OR_MORE_END"><circle r="6" cy="18" cx="9" fill="white" stroke="gray"></circle><path d="M21,18 Q39,0 57,18 Q39,36 21,18" fill="none" stroke="gray"></path></marker></defs><path style="stroke: gray; fill: none;" marker-start="url(#ONLY_ONE_START)" marker-end="url(#ZERO_OR_MORE_END)" d="M82.83045959472656,124.5L82.83045959472656,134.75C82.83045959472656,145,82.83045959472656,165.5,82.83045959472656,189.41666666666666C82.83045959472656,213.33333333333334,82.83045959472656,240.66666666666666,82.83045959472656,254.33333333333334L82.83045959472656,268" class="er relationshipLine"></path><path style="stroke: gray; fill: none;" marker-start="url(#ONLY_ONE_START)" marker-end="url(#ZERO_OR_MORE_END)" d="M293.02162700229223,136L289.84698737109153,144.33333333333334C286.67234773989077,152.66666666666666,280.32306847748936,169.33333333333334,277.1484288462886,197.58333333333334C273.9737892150879,225.83333333333334,273.9737892150879,265.6666666666667,273.9737892150879,305.5C273.9737892150879,345.3333333333333,273.9737892150879,385.1666666666667,273.9737892150879,413.4166666666667C273.9737892150879,441.6666666666667,273.9737892150879,458.3333333333333,273.9737892150879,466.6666666666667L273.9737892150879,475" class="er relationshipLine"></path><path style="stroke: gray; fill: none;" marker-start="url(#ONE_OR_MORE_START)" marker-end="url(#ONLY_ONE_END)" d="M384.5733184814453,105.98603024575073L417.6699873606364,119.32169187145894C450.76665623982746,132.65735349716715,516.9599939982096,159.32867674858358,582.4223912556967,188.11520192424896C647.8847885131836,216.9017270999144,712.6162452697754,247.80345419982882,744.9819736480713,263.254317749786L777.3477020263672,278.70518129974323" class="er relationshipLine"></path><path style="stroke: gray; fill: none;" marker-start="url(#ONLY_ONE_START)" marker-end="url(#ZERO_OR_MORE_END)" d="M889.6047058105469,339.8340252887888L912.809279759725,354.028354407324C936.013853708903,368.22268352585917,982.4230016072592,396.6113417629296,1005.6275755564371,426.8056708814648C1028.8321495056152,457,1028.8321495056152,489,1028.8321495056152,505L1028.8321495056152,521" class="er relationshipLine"></path><path style="stroke: gray; fill: none;" marker-start="url(#ONLY_ONE_START)" marker-end="url(#ONE_OR_MORE_END)" d="M933.476203918457,101.5L933.476203918457,115.58333333333333C933.476203918457,129.66666666666666,933.476203918457,157.83333333333334,926.1642875671387,180.6544067064921C918.8523712158203,203.47548007965088,904.2285385131836,220.95096015930176,896.9166221618652,229.6887001991272L889.6047058105469,238.42644023895264" class="er relationshipLine"></path><path style="stroke: gray; fill: none;" marker-start="url(#ONLY_ONE_START)" marker-end="url(#ZERO_OR_MORE_END)" d="M809.5476565660293,375L806.6785261880405,383.3333333333333C803.8093958100513,391.6666666666667,798.0711350540736,408.3333333333333,795.2020046760846,428.8333333333333C792.3328742980957,449.3333333333333,792.3328742980957,473.6666666666667,792.3328742980957,485.8333333333333L792.3328742980957,498" class="er relationshipLine"></path><path style="stroke: gray; fill: none;" marker-start="url(#ONLY_ONE_START)" marker-end="url(#ONLY_ONE_END)" d="M273.9737892150879,637L273.9737892150879,645.3333333333334C273.9737892150879,653.6666666666666,273.9737892150879,670.3333333333334,279.16111747464987,690.8333333333334C284.3484457342118,711.3333333333334,294.72310225333575,735.6666666666666,299.9104305128977,747.8333333333334L305.09775877245966,760" class="er relationshipLine"></path><path style="stroke: gray; fill: none;" marker-start="url(#ONLY_ONE_START)" marker-end="url(#ONLY_ONE_END)" d="M586.0128588785652,602.5L601.8815596194668,616.5833333333334C617.7502603603683,630.6666666666666,649.4876618421714,658.8333333333334,677.0028191285718,681.25C704.517976414972,703.6666666666666,727.8108895059695,720.3333333333334,739.4573460514681,728.6666666666666L751.1038025969668,737" class="er relationshipLine"></path><path style="stroke: gray; fill: none;" marker-start="url(#ONLY_ONE_START)" marker-end="url(#ZERO_OR_MORE_END)" d="M505.2841804300556,602.5L496.7027975548315,616.5833333333334C488.12141467960737,630.6666666666666,470.95864892915915,658.8333333333334,444.89272409010414,685.0833333333334C418.8267992510491,711.3333333333334,383.85771532338725,735.6666666666666,366.37317335955635,747.8333333333334L348.8886313957254,760" class="er relationshipLine"></path><path style="stroke: gray; fill: none;" marker-start="url(#ONLY_ONE_START)" marker-end="url(#ZERO_OR_MORE_END)" d="M962.6775844952532,591L932.4354976333734,607C902.1934107714936,623,841.7092370477341,655,814.4780281475879,679.3333333333334C787.2468192474417,703.6666666666666,793.268575170909,720.3333333333334,796.2794531326426,728.6666666666666L799.2903310943761,737" class="er relationshipLine"></path><path style="stroke: gray; fill: none;" marker-start="url(#ONLY_ONE_START)" marker-end="url(#ZERO_OR_MORE_END)" d="M1042.1909281315695,591L1048.2977983605772,607C1054.4046685895848,623,1066.6184090476,655,1072.7252792766076,680.8333333333334C1078.8321495056152,706.6666666666666,1078.8321495056152,726.3333333333334,1078.8321495056152,736.1666666666666L1078.8321495056152,746" class="er relationshipLine"></path><path style="stroke: gray; fill: none;" marker-start="url(#ONLY_ONE_START)" marker-end="url(#ZERO_OR_MORE_END)" d="M864.2775586182589,737L872.9131372020241,728.6666666666666C881.5487157857891,720.3333333333334,898.8198729533193,703.6666666666666,921.2253592482008,679.3333333333334C943.6308455430825,655,971.1706609653153,623,984.9405686764317,607L998.710476387548,591" class="er relationshipLine"></path><g transform="translate(20,31.5 )" id="entity-ADDRESS-153346fa-a574-56cf-a80f-86d44868c0af"><rect height="93" width="125.66091918945312" y="0" x="0" class="er entityBox"></rect><text style="dominant-baseline: middle; text-anchor: middle; font-size: 12px;" transform="translate(62.83045959472656,12)" y="0" x="0" id="text-entity-ADDRESS-153346fa-a574-56cf-a80f-86d44868c0af" class="er entityLabel">ADDRESS</text><rect height="23" width="37.21012878417969" y="24" x="0" class="er attributeBoxOdd"></rect><text style="dominant-baseline: middle; font-size: 10.2px;" transform="translate(5,35.5)" y="0" x="0" id="text-entity-ADDRESS-153346fa-a574-56cf-a80f-86d44868c0af-attr-1-type" class="er entityLabel">int</text><rect height="23" width="66.52891540527344" y="24" x="37.21012878417969" class="er attributeBoxOdd"></rect><text style="dominant-baseline: middle; font-size: 10.2px;" transform="translate(42.21012878417969,35.5)" y="0" x="0" id="text-entity-ADDRESS-153346fa-a574-56cf-a80f-86d44868c0af-attr-1-name" class="er entityLabel">Id</text><rect height="23" width="21.921875" y="24" x="103.73904418945312" class="er attributeBoxOdd"></rect><text style="dominant-baseline: middle; font-size: 10.2px;" transform="translate(108.73904418945312,35.5)" y="0" x="0" id="text-entity-ADDRESS-153346fa-a574-56cf-a80f-86d44868c0af-attr-1-key" class="er entityLabel">PK</text><rect height="23" width="37.21012878417969" y="47" x="0" class="er attributeBoxEven"></rect><text style="dominant-baseline: middle; font-size: 10.2px;" transform="translate(5,58.5)" y="0" x="0" id="text-entity-ADDRESS-153346fa-a574-56cf-a80f-86d44868c0af-attr-2-type" class="er entityLabel">int</text><rect height="23" width="66.52891540527344" y="47" x="37.21012878417969" class="er attributeBoxEven"></rect><text style="dominant-baseline: middle; font-size: 10.2px;" transform="translate(42.21012878417969,58.5)" y="0" x="0" id="text-entity-ADDRESS-153346fa-a574-56cf-a80f-86d44868c0af-attr-2-name" class="er entityLabel">UserId</text><rect height="23" width="21.921875" y="47" x="103.73904418945312" class="er attributeBoxEven"></rect><text style="dominant-baseline: middle; font-size: 10.2px;" transform="translate(108.73904418945312,58.5)" y="0" x="0" id="text-entity-ADDRESS-153346fa-a574-56cf-a80f-86d44868c0af-attr-2-key" class="er entityLabel">FK</text><rect height="23" width="37.21012878417969" y="70" x="0" class="er attributeBoxOdd"></rect><text style="dominant-baseline: middle; font-size: 10.2px;" transform="translate(5,81.5)" y="0" x="0" id="text-entity-ADDRESS-153346fa-a574-56cf-a80f-86d44868c0af-attr-3-type" class="er entityLabel">string</text><rect height="23" width="66.52891540527344" y="70" x="37.21012878417969" class="er attributeBoxOdd"></rect><text style="dominant-baseline: middle; font-size: 10.2px;" transform="translate(42.21012878417969,81.5)" y="0" x="0" id="text-entity-ADDRESS-153346fa-a574-56cf-a80f-86d44868c0af-attr-3-name" class="er entityLabel">AddressLine</text><rect height="23" width="21.921875" y="70" x="103.73904418945312" class="er attributeBoxOdd"></rect><text style="dominant-baseline: middle; font-size: 10.2px;" transform="translate(108.73904418945312,81.5)" y="0" x="0" id="text-entity-ADDRESS-153346fa-a574-56cf-a80f-86d44868c0af-attr-3-key" class="er entityLabel"></text></g><g transform="translate(32.83045959472656,268 )" id="entity-USER-6e7e2962-0c6f-577d-a7fd-2ce3a0cfd2c8"><rect height="75" width="100" y="0" x="0" class="er entityBox"></rect><text style="dominant-baseline: middle; text-anchor: middle; font-size: 12px;" transform="translate(50,37.5)" y="0" x="0" id="text-entity-USER-6e7e2962-0c6f-577d-a7fd-2ce3a0cfd2c8" class="er entityLabel">USER</text></g><g transform="translate(245.66091918945312,20 )" id="entity-CART-e3ab3ce5-09ce-52c0-b080-5a59494cc60a"><rect height="116" width="138.9123992919922" y="0" x="0" class="er entityBox"></rect><text style="dominant-baseline: middle; text-anchor: middle; font-size: 12px;" transform="translate(69.4561996459961,12)" y="0" x="0" id="text-entity-CART-e3ab3ce5-09ce-52c0-b080-5a59494cc60a" class="er entityLabel">CART</text><rect height="23" width="53.97489929199219" y="24" x="0" class="er attributeBoxOdd"></rect><text style="dominant-baseline: middle; font-size: 10.2px;" transform="translate(5,35.5)" y="0" x="0" id="text-entity-CART-e3ab3ce5-09ce-52c0-b080-5a59494cc60a-attr-1-type" class="er entityLabel">Guid</text><rect height="23" width="63.015625" y="24" x="53.97489929199219" class="er attributeBoxOdd"></rect><text style="dominant-baseline: middle; font-size: 10.2px;" transform="translate(58.97489929199219,35.5)" y="0" x="0" id="text-entity-CART-e3ab3ce5-09ce-52c0-b080-5a59494cc60a-attr-1-name" class="er entityLabel">Id</text><rect height="23" width="21.921875" y="24" x="116.99052429199219" class="er attributeBoxOdd"></rect><text style="dominant-baseline: middle; font-size: 10.2px;" transform="translate(121.99052429199219,35.5)" y="0" x="0" id="text-entity-CART-e3ab3ce5-09ce-52c0-b080-5a59494cc60a-attr-1-key" class="er entityLabel">PK</text><rect height="23" width="53.97489929199219" y="47" x="0" class="er attributeBoxEven"></rect><text style="dominant-baseline: middle; font-size: 10.2px;" transform="translate(5,58.5)" y="0" x="0" id="text-entity-CART-e3ab3ce5-09ce-52c0-b080-5a59494cc60a-attr-2-type" class="er entityLabel">string</text><rect height="23" width="63.015625" y="47" x="53.97489929199219" class="er attributeBoxEven"></rect><text style="dominant-baseline: middle; font-size: 10.2px;" transform="translate(58.97489929199219,58.5)" y="0" x="0" id="text-entity-CART-e3ab3ce5-09ce-52c0-b080-5a59494cc60a-attr-2-name" class="er entityLabel">Status</text><rect height="23" width="21.921875" y="47" x="116.99052429199219" class="er attributeBoxEven"></rect><text style="dominant-baseline: middle; font-size: 10.2px;" transform="translate(121.99052429199219,58.5)" y="0" x="0" id="text-entity-CART-e3ab3ce5-09ce-52c0-b080-5a59494cc60a-attr-2-key" class="er entityLabel"></text><rect height="23" width="53.97489929199219" y="70" x="0" class="er attributeBoxOdd"></rect><text style="dominant-baseline: middle; font-size: 10.2px;" transform="translate(5,81.5)" y="0" x="0" id="text-entity-CART-e3ab3ce5-09ce-52c0-b080-5a59494cc60a-attr-3-type" class="er entityLabel">string</text><rect height="23" width="63.015625" y="70" x="53.97489929199219" class="er attributeBoxOdd"></rect><text style="dominant-baseline: middle; font-size: 10.2px;" transform="translate(58.97489929199219,81.5)" y="0" x="0" id="text-entity-CART-e3ab3ce5-09ce-52c0-b080-5a59494cc60a-attr-3-name" class="er entityLabel">CustomerId</text><rect height="23" width="21.921875" y="70" x="116.99052429199219" class="er attributeBoxOdd"></rect><text style="dominant-baseline: middle; font-size: 10.2px;" transform="translate(121.99052429199219,81.5)" y="0" x="0" id="text-entity-CART-e3ab3ce5-09ce-52c0-b080-5a59494cc60a-attr-3-key" class="er entityLabel">FK</text><rect height="23" width="53.97489929199219" y="93" x="0" class="er attributeBoxEven"></rect><text style="dominant-baseline: middle; font-size: 10.2px;" transform="translate(5,104.5)" y="0" x="0" id="text-entity-CART-e3ab3ce5-09ce-52c0-b080-5a59494cc60a-attr-4-type" class="er entityLabel">Customer</text><rect height="23" width="63.015625" y="93" x="53.97489929199219" class="er attributeBoxEven"></rect><text style="dominant-baseline: middle; font-size: 10.2px;" transform="translate(58.97489929199219,104.5)" y="0" x="0" id="text-entity-CART-e3ab3ce5-09ce-52c0-b080-5a59494cc60a-attr-4-name" class="er entityLabel">Customer</text><rect height="23" width="21.921875" y="93" x="116.99052429199219" class="er attributeBoxEven"></rect><text style="dominant-baseline: middle; font-size: 10.2px;" transform="translate(121.99052429199219,104.5)" y="0" x="0" id="text-entity-CART-e3ab3ce5-09ce-52c0-b080-5a59494cc60a-attr-4-key" class="er entityLabel"></text></g><g transform="translate(204.04142379760742,475 )" id="entity-ITEMMENU-9e66df12-86e8-5812-bb71-f5f1cdc1b234"><rect height="162" width="139.86473083496094" y="0" x="0" class="er entityBox"></rect><text style="dominant-baseline: middle; text-anchor: middle; font-size: 12px;" transform="translate(69.93236541748047,12)" y="0" x="0" id="text-entity-ITEMMENU-9e66df12-86e8-5812-bb71-f5f1cdc1b234" class="er entityLabel">ITEM_MENU</text><rect height="23" width="50.875" y="24" x="0" class="er attributeBoxOdd"></rect><text style="dominant-baseline: middle; font-size: 10.2px;" transform="translate(5,35.5)" y="0" x="0" id="text-entity-ITEMMENU-9e66df12-86e8-5812-bb71-f5f1cdc1b234-attr-1-type" class="er entityLabel">int</text><rect height="23" width="67.06785583496094" y="24" x="50.875" class="er attributeBoxOdd"></rect><text style="dominant-baseline: middle; font-size: 10.2px;" transform="translate(55.875,35.5)" y="0" x="0" id="text-entity-ITEMMENU-9e66df12-86e8-5812-bb71-f5f1cdc1b234-attr-1-name" class="er entityLabel">Id</text><rect height="23" width="21.921875" y="24" x="117.94285583496094" class="er attributeBoxOdd"></rect><text style="dominant-baseline: middle; font-size: 10.2px;" transform="translate(122.94285583496094,35.5)" y="0" x="0" id="text-entity-ITEMMENU-9e66df12-86e8-5812-bb71-f5f1cdc1b234-attr-1-key" class="er entityLabel">PK</text><rect height="23" width="50.875" y="47" x="0" class="er attributeBoxEven"></rect><text style="dominant-baseline: middle; font-size: 10.2px;" transform="translate(5,58.5)" y="0" x="0" id="text-entity-ITEMMENU-9e66df12-86e8-5812-bb71-f5f1cdc1b234-attr-2-type" class="er entityLabel">string</text><rect height="23" width="67.06785583496094" y="47" x="50.875" class="er attributeBoxEven"></rect><text style="dominant-baseline: middle; font-size: 10.2px;" transform="translate(55.875,58.5)" y="0" x="0" id="text-entity-ITEMMENU-9e66df12-86e8-5812-bb71-f5f1cdc1b234-attr-2-name" class="er entityLabel">Name</text><rect height="23" width="21.921875" y="47" x="117.94285583496094" class="er attributeBoxEven"></rect><text style="dominant-baseline: middle; font-size: 10.2px;" transform="translate(122.94285583496094,58.5)" y="0" x="0" id="text-entity-ITEMMENU-9e66df12-86e8-5812-bb71-f5f1cdc1b234-attr-2-key" class="er entityLabel"></text><rect height="23" width="50.875" y="70" x="0" class="er attributeBoxOdd"></rect><text style="dominant-baseline: middle; font-size: 10.2px;" transform="translate(5,81.5)" y="0" x="0" id="text-entity-ITEMMENU-9e66df12-86e8-5812-bb71-f5f1cdc1b234-attr-3-type" class="er entityLabel">float</text><rect height="23" width="67.06785583496094" y="70" x="50.875" class="er attributeBoxOdd"></rect><text style="dominant-baseline: middle; font-size: 10.2px;" transform="translate(55.875,81.5)" y="0" x="0" id="text-entity-ITEMMENU-9e66df12-86e8-5812-bb71-f5f1cdc1b234-attr-3-name" class="er entityLabel">Price</text><rect height="23" width="21.921875" y="70" x="117.94285583496094" class="er attributeBoxOdd"></rect><text style="dominant-baseline: middle; font-size: 10.2px;" transform="translate(122.94285583496094,81.5)" y="0" x="0" id="text-entity-ITEMMENU-9e66df12-86e8-5812-bb71-f5f1cdc1b234-attr-3-key" class="er entityLabel"></text><rect height="23" width="50.875" y="93" x="0" class="er attributeBoxEven"></rect><text style="dominant-baseline: middle; font-size: 10.2px;" transform="translate(5,104.5)" y="0" x="0" id="text-entity-ITEMMENU-9e66df12-86e8-5812-bb71-f5f1cdc1b234-attr-4-type" class="er entityLabel">string</text><rect height="23" width="67.06785583496094" y="93" x="50.875" class="er attributeBoxEven"></rect><text style="dominant-baseline: middle; font-size: 10.2px;" transform="translate(55.875,104.5)" y="0" x="0" id="text-entity-ITEMMENU-9e66df12-86e8-5812-bb71-f5f1cdc1b234-attr-4-name" class="er entityLabel">Description</text><rect height="23" width="21.921875" y="93" x="117.94285583496094" class="er attributeBoxEven"></rect><text style="dominant-baseline: middle; font-size: 10.2px;" transform="translate(122.94285583496094,104.5)" y="0" x="0" id="text-entity-ITEMMENU-9e66df12-86e8-5812-bb71-f5f1cdc1b234-attr-4-key" class="er entityLabel"></text><rect height="23" width="50.875" y="116" x="0" class="er attributeBoxOdd"></rect><text style="dominant-baseline: middle; font-size: 10.2px;" transform="translate(5,127.5)" y="0" x="0" id="text-entity-ITEMMENU-9e66df12-86e8-5812-bb71-f5f1cdc1b234-attr-5-type" class="er entityLabel">string</text><rect height="23" width="67.06785583496094" y="116" x="50.875" class="er attributeBoxOdd"></rect><text style="dominant-baseline: middle; font-size: 10.2px;" transform="translate(55.875,127.5)" y="0" x="0" id="text-entity-ITEMMENU-9e66df12-86e8-5812-bb71-f5f1cdc1b234-attr-5-name" class="er entityLabel">TagMenuTag</text><rect height="23" width="21.921875" y="116" x="117.94285583496094" class="er attributeBoxOdd"></rect><text style="dominant-baseline: middle; font-size: 10.2px;" transform="translate(122.94285583496094,127.5)" y="0" x="0" id="text-entity-ITEMMENU-9e66df12-86e8-5812-bb71-f5f1cdc1b234-attr-5-key" class="er entityLabel">FK</text><rect height="23" width="50.875" y="139" x="0" class="er attributeBoxEven"></rect><text style="dominant-baseline: middle; font-size: 10.2px;" transform="translate(5,150.5)" y="0" x="0" id="text-entity-ITEMMENU-9e66df12-86e8-5812-bb71-f5f1cdc1b234-attr-6-type" class="er entityLabel">TagMenu</text><rect height="23" width="67.06785583496094" y="139" x="50.875" class="er attributeBoxEven"></rect><text style="dominant-baseline: middle; font-size: 10.2px;" transform="translate(55.875,150.5)" y="0" x="0" id="text-entity-ITEMMENU-9e66df12-86e8-5812-bb71-f5f1cdc1b234-attr-6-name" class="er entityLabel">TagMenu</text><rect height="23" width="21.921875" y="139" x="117.94285583496094" class="er attributeBoxEven"></rect><text style="dominant-baseline: middle; font-size: 10.2px;" transform="translate(122.94285583496094,150.5)" y="0" x="0" id="text-entity-ITEMMENU-9e66df12-86e8-5812-bb71-f5f1cdc1b234-attr-6-key" class="er entityLabel"></text></g><g transform="translate(777.3477020263672,236 )" id="entity-CUSTOMER-7c659eae-ee79-5f5d-acd7-c418f8ad1d67"><rect height="139" width="112.25700378417969" y="0" x="0" class="er entityBox"></rect><text style="dominant-baseline: middle; text-anchor: middle; font-size: 12px;" transform="translate(56.128501892089844,12)" y="0" x="0" id="text-entity-CUSTOMER-7c659eae-ee79-5f5d-acd7-c418f8ad1d67" class="er entityLabel">CUSTOMER</text><rect height="23" width="37.21012878417969" y="24" x="0" class="er attributeBoxOdd"></rect><text style="dominant-baseline: middle; font-size: 10.2px;" transform="translate(5,35.5)" y="0" x="0" id="text-entity-CUSTOMER-7c659eae-ee79-5f5d-acd7-c418f8ad1d67-attr-1-type" class="er entityLabel">Guid</text><rect height="23" width="53.125" y="24" x="37.21012878417969" class="er attributeBoxOdd"></rect><text style="dominant-baseline: middle; font-size: 10.2px;" transform="translate(42.21012878417969,35.5)" y="0" x="0" id="text-entity-CUSTOMER-7c659eae-ee79-5f5d-acd7-c418f8ad1d67-attr-1-name" class="er entityLabel">Id</text><rect height="23" width="21.921875" y="24" x="90.33512878417969" class="er attributeBoxOdd"></rect><text style="dominant-baseline: middle; font-size: 10.2px;" transform="translate(95.33512878417969,35.5)" y="0" x="0" id="text-entity-CUSTOMER-7c659eae-ee79-5f5d-acd7-c418f8ad1d67-attr-1-key" class="er entityLabel">PK</text><rect height="23" width="37.21012878417969" y="47" x="0" class="er attributeBoxEven"></rect><text style="dominant-baseline: middle; font-size: 10.2px;" transform="translate(5,58.5)" y="0" x="0" id="text-entity-CUSTOMER-7c659eae-ee79-5f5d-acd7-c418f8ad1d67-attr-2-type" class="er entityLabel">string</text><rect height="23" width="53.125" y="47" x="37.21012878417969" class="er attributeBoxEven"></rect><text style="dominant-baseline: middle; font-size: 10.2px;" transform="translate(42.21012878417969,58.5)" y="0" x="0" id="text-entity-CUSTOMER-7c659eae-ee79-5f5d-acd7-c418f8ad1d67-attr-2-name" class="er entityLabel">Name</text><rect height="23" width="21.921875" y="47" x="90.33512878417969" class="er attributeBoxEven"></rect><text style="dominant-baseline: middle; font-size: 10.2px;" transform="translate(95.33512878417969,58.5)" y="0" x="0" id="text-entity-CUSTOMER-7c659eae-ee79-5f5d-acd7-c418f8ad1d67-attr-2-key" class="er entityLabel"></text><rect height="23" width="37.21012878417969" y="70" x="0" class="er attributeBoxOdd"></rect><text style="dominant-baseline: middle; font-size: 10.2px;" transform="translate(5,81.5)" y="0" x="0" id="text-entity-CUSTOMER-7c659eae-ee79-5f5d-acd7-c418f8ad1d67-attr-3-type" class="er entityLabel">string</text><rect height="23" width="53.125" y="70" x="37.21012878417969" class="er attributeBoxOdd"></rect><text style="dominant-baseline: middle; font-size: 10.2px;" transform="translate(42.21012878417969,81.5)" y="0" x="0" id="text-entity-CUSTOMER-7c659eae-ee79-5f5d-acd7-c418f8ad1d67-attr-3-name" class="er entityLabel">Surname</text><rect height="23" width="21.921875" y="70" x="90.33512878417969" class="er attributeBoxOdd"></rect><text style="dominant-baseline: middle; font-size: 10.2px;" transform="translate(95.33512878417969,81.5)" y="0" x="0" id="text-entity-CUSTOMER-7c659eae-ee79-5f5d-acd7-c418f8ad1d67-attr-3-key" class="er entityLabel"></text><rect height="23" width="37.21012878417969" y="93" x="0" class="er attributeBoxEven"></rect><text style="dominant-baseline: middle; font-size: 10.2px;" transform="translate(5,104.5)" y="0" x="0" id="text-entity-CUSTOMER-7c659eae-ee79-5f5d-acd7-c418f8ad1d67-attr-4-type" class="er entityLabel">string</text><rect height="23" width="53.125" y="93" x="37.21012878417969" class="er attributeBoxEven"></rect><text style="dominant-baseline: middle; font-size: 10.2px;" transform="translate(42.21012878417969,104.5)" y="0" x="0" id="text-entity-CUSTOMER-7c659eae-ee79-5f5d-acd7-c418f8ad1d67-attr-4-name" class="er entityLabel">Email</text><rect height="23" width="21.921875" y="93" x="90.33512878417969" class="er attributeBoxEven"></rect><text style="dominant-baseline: middle; font-size: 10.2px;" transform="translate(95.33512878417969,104.5)" y="0" x="0" id="text-entity-CUSTOMER-7c659eae-ee79-5f5d-acd7-c418f8ad1d67-attr-4-key" class="er entityLabel"></text><rect height="23" width="37.21012878417969" y="116" x="0" class="er attributeBoxOdd"></rect><text style="dominant-baseline: middle; font-size: 10.2px;" transform="translate(5,127.5)" y="0" x="0" id="text-entity-CUSTOMER-7c659eae-ee79-5f5d-acd7-c418f8ad1d67-attr-5-type" class="er entityLabel">string</text><rect height="23" width="53.125" y="116" x="37.21012878417969" class="er attributeBoxOdd"></rect><text style="dominant-baseline: middle; font-size: 10.2px;" transform="translate(42.21012878417969,127.5)" y="0" x="0" id="text-entity-CUSTOMER-7c659eae-ee79-5f5d-acd7-c418f8ad1d67-attr-5-name" class="er entityLabel">Password</text><rect height="23" width="21.921875" y="116" x="90.33512878417969" class="er attributeBoxOdd"></rect><text style="dominant-baseline: middle; font-size: 10.2px;" transform="translate(95.33512878417969,127.5)" y="0" x="0" id="text-entity-CUSTOMER-7c659eae-ee79-5f5d-acd7-c418f8ad1d67-attr-5-key" class="er entityLabel"></text></g><g transform="translate(961.3359489440918,521 )" id="entity-ORDER-36941e20-eb1d-50a3-81c5-00079b43c24a"><rect height="70" width="134.99240112304688" y="0" x="0" class="er entityBox"></rect><text style="dominant-baseline: middle; text-anchor: middle; font-size: 12px;" transform="translate(67.49620056152344,12)" y="0" x="0" id="text-entity-ORDER-36941e20-eb1d-50a3-81c5-00079b43c24a" class="er entityLabel">ORDER</text><rect height="23" width="53.94770812988281" y="24" x="0" class="er attributeBoxOdd"></rect><text style="dominant-baseline: middle; font-size: 10.2px;" transform="translate(5,35.5)" y="0" x="0" id="text-entity-ORDER-36941e20-eb1d-50a3-81c5-00079b43c24a-attr-1-type" class="er entityLabel">Guid</text><rect height="23" width="59.12281799316406" y="24" x="53.94770812988281" class="er attributeBoxOdd"></rect><text style="dominant-baseline: middle; font-size: 10.2px;" transform="translate(58.94770812988281,35.5)" y="0" x="0" id="text-entity-ORDER-36941e20-eb1d-50a3-81c5-00079b43c24a-attr-1-name" class="er entityLabel">Id</text><rect height="23" width="21.921875" y="24" x="113.07052612304688" class="er attributeBoxOdd"></rect><text style="dominant-baseline: middle; font-size: 10.2px;" transform="translate(118.07052612304688,35.5)" y="0" x="0" id="text-entity-ORDER-36941e20-eb1d-50a3-81c5-00079b43c24a-attr-1-key" class="er entityLabel">PK</text><rect height="23" width="53.94770812988281" y="47" x="0" class="er attributeBoxEven"></rect><text style="dominant-baseline: middle; font-size: 10.2px;" transform="translate(5,58.5)" y="0" x="0" id="text-entity-ORDER-36941e20-eb1d-50a3-81c5-00079b43c24a-attr-2-type" class="er entityLabel">DateTime</text><rect height="23" width="59.12281799316406" y="47" x="53.94770812988281" class="er attributeBoxEven"></rect><text style="dominant-baseline: middle; font-size: 10.2px;" transform="translate(58.94770812988281,58.5)" y="0" x="0" id="text-entity-ORDER-36941e20-eb1d-50a3-81c5-00079b43c24a-attr-2-name" class="er entityLabel">OrderTime</text><rect height="23" width="21.921875" y="47" x="113.07052612304688" class="er attributeBoxEven"></rect><text style="dominant-baseline: middle; font-size: 10.2px;" transform="translate(118.07052612304688,58.5)" y="0" x="0" id="text-entity-ORDER-36941e20-eb1d-50a3-81c5-00079b43c24a-attr-2-key" class="er entityLabel"></text></g><g transform="translate(869.749641418457,54.5 )" id="entity-CORPORATEUSER-9b7db9c4-94f6-518b-a7c5-60fa51c259bf"><rect height="47" width="127.453125" y="0" x="0" class="er entityBox"></rect><text style="dominant-baseline: middle; text-anchor: middle; font-size: 12px;" transform="translate(63.7265625,12)" y="0" x="0" id="text-entity-CORPORATEUSER-9b7db9c4-94f6-518b-a7c5-60fa51c259bf" class="er entityLabel">CORPORATE_USER</text><rect height="23" width="42.424949645996094" y="24" x="0" class="er attributeBoxOdd"></rect><text style="dominant-baseline: middle; font-size: 10.2px;" transform="translate(5,35.5)" y="0" x="0" id="text-entity-CORPORATEUSER-9b7db9c4-94f6-518b-a7c5-60fa51c259bf-attr-1-type" class="er entityLabel">string</text><rect height="23" width="85.0281753540039" y="24" x="42.424949645996094" class="er attributeBoxOdd"></rect><text style="dominant-baseline: middle; font-size: 10.2px;" transform="translate(47.424949645996094,35.5)" y="0" x="0" id="text-entity-CORPORATEUSER-9b7db9c4-94f6-518b-a7c5-60fa51c259bf-attr-1-name" class="er entityLabel">CompanyName</text></g><g transform="translate(723.3297996520996,498 )" id="entity-TOKEN-62291476-6e89-5851-a879-541c67ae2a2a"><rect height="116" width="138.0061492919922" y="0" x="0" class="er entityBox"></rect><text style="dominant-baseline: middle; text-anchor: middle; font-size: 12px;" transform="translate(69.0030746459961,12)" y="0" x="0" id="text-entity-TOKEN-62291476-6e89-5851-a879-541c67ae2a2a" class="er entityLabel">TOKEN</text><rect height="23" width="53.97489929199219" y="24" x="0" class="er attributeBoxOdd"></rect><text style="dominant-baseline: middle; font-size: 10.2px;" transform="translate(5,35.5)" y="0" x="0" id="text-entity-TOKEN-62291476-6e89-5851-a879-541c67ae2a2a-attr-1-type" class="er entityLabel">string</text><rect height="23" width="63.015625" y="24" x="53.97489929199219" class="er attributeBoxOdd"></rect><text style="dominant-baseline: middle; font-size: 10.2px;" transform="translate(58.97489929199219,35.5)" y="0" x="0" id="text-entity-TOKEN-62291476-6e89-5851-a879-541c67ae2a2a-attr-1-name" class="er entityLabel">TokenValue</text><rect height="23" width="21.015625" y="24" x="116.99052429199219" class="er attributeBoxOdd"></rect><text style="dominant-baseline: middle; font-size: 10.2px;" transform="translate(121.99052429199219,35.5)" y="0" x="0" id="text-entity-TOKEN-62291476-6e89-5851-a879-541c67ae2a2a-attr-1-key" class="er entityLabel"></text><rect height="23" width="53.97489929199219" y="47" x="0" class="er attributeBoxEven"></rect><text style="dominant-baseline: middle; font-size: 10.2px;" transform="translate(5,58.5)" y="0" x="0" id="text-entity-TOKEN-62291476-6e89-5851-a879-541c67ae2a2a-attr-2-type" class="er entityLabel">DateTime</text><rect height="23" width="63.015625" y="47" x="53.97489929199219" class="er attributeBoxEven"></rect><text style="dominant-baseline: middle; font-size: 10.2px;" transform="translate(58.97489929199219,58.5)" y="0" x="0" id="text-entity-TOKEN-62291476-6e89-5851-a879-541c67ae2a2a-attr-2-name" class="er entityLabel">ExpiryDate</text><rect height="23" width="21.015625" y="47" x="116.99052429199219" class="er attributeBoxEven"></rect><text style="dominant-baseline: middle; font-size: 10.2px;" transform="translate(121.99052429199219,58.5)" y="0" x="0" id="text-entity-TOKEN-62291476-6e89-5851-a879-541c67ae2a2a-attr-2-key" class="er entityLabel"></text><rect height="23" width="53.97489929199219" y="70" x="0" class="er attributeBoxOdd"></rect><text style="dominant-baseline: middle; font-size: 10.2px;" transform="translate(5,81.5)" y="0" x="0" id="text-entity-TOKEN-62291476-6e89-5851-a879-541c67ae2a2a-attr-3-type" class="er entityLabel">Guid</text><rect height="23" width="63.015625" y="70" x="53.97489929199219" class="er attributeBoxOdd"></rect><text style="dominant-baseline: middle; font-size: 10.2px;" transform="translate(58.97489929199219,81.5)" y="0" x="0" id="text-entity-TOKEN-62291476-6e89-5851-a879-541c67ae2a2a-attr-3-name" class="er entityLabel">CustomerId</text><rect height="23" width="21.015625" y="70" x="116.99052429199219" class="er attributeBoxOdd"></rect><text style="dominant-baseline: middle; font-size: 10.2px;" transform="translate(121.99052429199219,81.5)" y="0" x="0" id="text-entity-TOKEN-62291476-6e89-5851-a879-541c67ae2a2a-attr-3-key" class="er entityLabel">FK</text><rect height="23" width="53.97489929199219" y="93" x="0" class="er attributeBoxEven"></rect><text style="dominant-baseline: middle; font-size: 10.2px;" transform="translate(5,104.5)" y="0" x="0" id="text-entity-TOKEN-62291476-6e89-5851-a879-541c67ae2a2a-attr-4-type" class="er entityLabel">Customer</text><rect height="23" width="63.015625" y="93" x="53.97489929199219" class="er attributeBoxEven"></rect><text style="dominant-baseline: middle; font-size: 10.2px;" transform="translate(58.97489929199219,104.5)" y="0" x="0" id="text-entity-TOKEN-62291476-6e89-5851-a879-541c67ae2a2a-attr-4-name" class="er entityLabel">Customer</text><rect height="23" width="21.015625" y="93" x="116.99052429199219" class="er attributeBoxEven"></rect><text style="dominant-baseline: middle; font-size: 10.2px;" transform="translate(121.99052429199219,104.5)" y="0" x="0" id="text-entity-TOKEN-62291476-6e89-5851-a879-541c67ae2a2a-attr-4-key" class="er entityLabel"></text></g><g transform="translate(265.1171188354492,760 )" id="entity-TAGMENU-755edd46-2883-5d61-819d-6b0fef37a1c0"><rect height="47" width="100" y="0" x="0" class="er entityBox"></rect><text style="dominant-baseline: middle; text-anchor: middle; font-size: 12px;" transform="translate(50,12)" y="0" x="0" id="text-entity-TAGMENU-755edd46-2883-5d61-819d-6b0fef37a1c0" class="er entityLabel">TAG_MENU</text><rect height="23" width="42.10051981608073" y="24" x="0" class="er attributeBoxOdd"></rect><text style="dominant-baseline: middle; font-size: 10.2px;" transform="translate(5,35.5)" y="0" x="0" id="text-entity-TAGMENU-755edd46-2883-5d61-819d-6b0fef37a1c0-attr-1-type" class="er entityLabel">string</text><rect height="23" width="31.08721415201823" y="24" x="42.10051981608073" class="er attributeBoxOdd"></rect><text style="dominant-baseline: middle; font-size: 10.2px;" transform="translate(47.10051981608073,35.5)" y="0" x="0" id="text-entity-TAGMENU-755edd46-2883-5d61-819d-6b0fef37a1c0-attr-1-name" class="er entityLabel">Tag</text><rect height="23" width="26.812266031901043" y="24" x="73.18773396809895" class="er attributeBoxOdd"></rect><text style="dominant-baseline: middle; font-size: 10.2px;" transform="translate(78.18773396809895,35.5)" y="0" x="0" id="text-entity-TAGMENU-755edd46-2883-5d61-819d-6b0fef37a1c0-attr-1-key" class="er entityLabel">PK</text></g><g transform="translate(443.90615463256836,509.5 )" id="entity-MENU-2fb3ada7-0ffe-5213-993f-6e01ec70d633"><rect height="93" width="179.42364501953125" y="0" x="0" class="er entityBox"></rect><text style="dominant-baseline: middle; text-anchor: middle; font-size: 12px;" transform="translate(89.71182250976562,12)" y="0" x="0" id="text-entity-MENU-2fb3ada7-0ffe-5213-993f-6e01ec70d633" class="er entityLabel">MENU</text><rect height="23" width="60.484344482421875" y="24" x="0" class="er attributeBoxOdd"></rect><text style="dominant-baseline: middle; font-size: 10.2px;" transform="translate(5,35.5)" y="0" x="0" id="text-entity-MENU-2fb3ada7-0ffe-5213-993f-6e01ec70d633-attr-1-type" class="er entityLabel">Guid</text><rect height="23" width="97.01742553710938" y="24" x="60.484344482421875" class="er attributeBoxOdd"></rect><text style="dominant-baseline: middle; font-size: 10.2px;" transform="translate(65.48434448242188,35.5)" y="0" x="0" id="text-entity-MENU-2fb3ada7-0ffe-5213-993f-6e01ec70d633-attr-1-name" class="er entityLabel">Id</text><rect height="23" width="21.921875" y="24" x="157.50177001953125" class="er attributeBoxOdd"></rect><text style="dominant-baseline: middle; font-size: 10.2px;" transform="translate(162.50177001953125,35.5)" y="0" x="0" id="text-entity-MENU-2fb3ada7-0ffe-5213-993f-6e01ec70d633-attr-1-key" class="er entityLabel">PK</text><rect height="23" width="60.484344482421875" y="47" x="0" class="er attributeBoxEven"></rect><text style="dominant-baseline: middle; font-size: 10.2px;" transform="translate(5,58.5)" y="0" x="0" id="text-entity-MENU-2fb3ada7-0ffe-5213-993f-6e01ec70d633-attr-2-type" class="er entityLabel">string</text><rect height="23" width="97.01742553710938" y="47" x="60.484344482421875" class="er attributeBoxEven"></rect><text style="dominant-baseline: middle; font-size: 10.2px;" transform="translate(65.48434448242188,58.5)" y="0" x="0" id="text-entity-MENU-2fb3ada7-0ffe-5213-993f-6e01ec70d633-attr-2-name" class="er entityLabel">RestaurantAddress</text><rect height="23" width="21.921875" y="47" x="157.50177001953125" class="er attributeBoxEven"></rect><text style="dominant-baseline: middle; font-size: 10.2px;" transform="translate(162.50177001953125,58.5)" y="0" x="0" id="text-entity-MENU-2fb3ada7-0ffe-5213-993f-6e01ec70d633-attr-2-key" class="er entityLabel">FK</text><rect height="23" width="60.484344482421875" y="70" x="0" class="er attributeBoxOdd"></rect><text style="dominant-baseline: middle; font-size: 10.2px;" transform="translate(5,81.5)" y="0" x="0" id="text-entity-MENU-2fb3ada7-0ffe-5213-993f-6e01ec70d633-attr-3-type" class="er entityLabel">Restaurant</text><rect height="23" width="97.01742553710938" y="70" x="60.484344482421875" class="er attributeBoxOdd"></rect><text style="dominant-baseline: middle; font-size: 10.2px;" transform="translate(65.48434448242188,81.5)" y="0" x="0" id="text-entity-MENU-2fb3ada7-0ffe-5213-993f-6e01ec70d633-attr-3-name" class="er entityLabel">Restaurant</text><rect height="23" width="21.921875" y="70" x="157.50177001953125" class="er attributeBoxOdd"></rect><text style="dominant-baseline: middle; font-size: 10.2px;" transform="translate(162.50177001953125,81.5)" y="0" x="0" id="text-entity-MENU-2fb3ada7-0ffe-5213-993f-6e01ec70d633-attr-3-key" class="er entityLabel"></text></g><g transform="translate(740.6087913513184,737 )" id="entity-RESTAURANT-8439aa6b-f9e9-5033-874d-9aa00d17f2b1"><rect height="93" width="150.9644775390625" y="0" x="0" class="er entityBox"></rect><text style="dominant-baseline: middle; text-anchor: middle; font-size: 12px;" transform="translate(75.48223876953125,12)" y="0" x="0" id="text-entity-RESTAURANT-8439aa6b-f9e9-5033-874d-9aa00d17f2b1" class="er entityLabel">RESTAURANT</text><rect height="23" width="37.21012878417969" y="24" x="0" class="er attributeBoxOdd"></rect><text style="dominant-baseline: middle; font-size: 10.2px;" transform="translate(5,35.5)" y="0" x="0" id="text-entity-RESTAURANT-8439aa6b-f9e9-5033-874d-9aa00d17f2b1-attr-1-type" class="er entityLabel">Guid</text><rect height="23" width="91.83247375488281" y="24" x="37.21012878417969" class="er attributeBoxOdd"></rect><text style="dominant-baseline: middle; font-size: 10.2px;" transform="translate(42.21012878417969,35.5)" y="0" x="0" id="text-entity-RESTAURANT-8439aa6b-f9e9-5033-874d-9aa00d17f2b1-attr-1-name" class="er entityLabel">Id</text><rect height="23" width="21.921875" y="24" x="129.0426025390625" class="er attributeBoxOdd"></rect><text style="dominant-baseline: middle; font-size: 10.2px;" transform="translate(134.0426025390625,35.5)" y="0" x="0" id="text-entity-RESTAURANT-8439aa6b-f9e9-5033-874d-9aa00d17f2b1-attr-1-key" class="er entityLabel">PK</text><rect height="23" width="37.21012878417969" y="47" x="0" class="er attributeBoxEven"></rect><text style="dominant-baseline: middle; font-size: 10.2px;" transform="translate(5,58.5)" y="0" x="0" id="text-entity-RESTAURANT-8439aa6b-f9e9-5033-874d-9aa00d17f2b1-attr-2-type" class="er entityLabel">string</text><rect height="23" width="91.83247375488281" y="47" x="37.21012878417969" class="er attributeBoxEven"></rect><text style="dominant-baseline: middle; font-size: 10.2px;" transform="translate(42.21012878417969,58.5)" y="0" x="0" id="text-entity-RESTAURANT-8439aa6b-f9e9-5033-874d-9aa00d17f2b1-attr-2-name" class="er entityLabel">RestaurntAddress</text><rect height="23" width="21.921875" y="47" x="129.0426025390625" class="er attributeBoxEven"></rect><text style="dominant-baseline: middle; font-size: 10.2px;" transform="translate(134.0426025390625,58.5)" y="0" x="0" id="text-entity-RESTAURANT-8439aa6b-f9e9-5033-874d-9aa00d17f2b1-attr-2-key" class="er entityLabel"></text><rect height="23" width="37.21012878417969" y="70" x="0" class="er attributeBoxOdd"></rect><text style="dominant-baseline: middle; font-size: 10.2px;" transform="translate(5,81.5)" y="0" x="0" id="text-entity-RESTAURANT-8439aa6b-f9e9-5033-874d-9aa00d17f2b1-attr-3-type" class="er entityLabel">string</text><rect height="23" width="91.83247375488281" y="70" x="37.21012878417969" class="er attributeBoxOdd"></rect><text style="dominant-baseline: middle; font-size: 10.2px;" transform="translate(42.21012878417969,81.5)" y="0" x="0" id="text-entity-RESTAURANT-8439aa6b-f9e9-5033-874d-9aa00d17f2b1-attr-3-name" class="er entityLabel">Name</text><rect height="23" width="21.921875" y="70" x="129.0426025390625" class="er attributeBoxOdd"></rect><text style="dominant-baseline: middle; font-size: 10.2px;" transform="translate(134.0426025390625,81.5)" y="0" x="0" id="text-entity-RESTAURANT-8439aa6b-f9e9-5033-874d-9aa00d17f2b1-attr-3-key" class="er entityLabel"></text></g><g transform="translate(1028.8321495056152,746 )" id="entity-ORDERITEM-e5349d72-b47b-55be-8020-113016425f62"><rect height="75" width="100" y="0" x="0" class="er entityBox"></rect><text style="dominant-baseline: middle; text-anchor: middle; font-size: 12px;" transform="translate(50,37.5)" y="0" x="0" id="text-entity-ORDERITEM-e5349d72-b47b-55be-8020-113016425f62" class="er entityLabel">ORDER_ITEM</text></g><rect height="14" width="19.440093994140625" y="189.25" x="73.11041259765625" class="er relationshipLabelBox"></rect><text style="text-anchor: middle; dominant-baseline: middle; font-size: 12px;" y="196.25" x="82.83045959472656" id="rel1" class="er relationshipLabel">has</text><rect height="14" width="46.728271484375" y="297.33251953125" x="250.60977172851562" class="er relationshipLabelBox"></rect><text style="text-anchor: middle; dominant-baseline: middle; font-size: 12px;" y="304.33251953125" x="273.9739074707031" id="rel2" class="er relationshipLabel">contains</text><rect height="14" width="59.859375" y="181.2622833251953" x="552.8262939453125" class="er relationshipLabelBox"></rect><text style="text-anchor: middle; dominant-baseline: middle; font-size: 12px;" y="188.2622833251953" x="582.7559814453125" id="rel3" class="er relationshipLabel">belongs_to</text><rect height="14" width="35.148193359375" y="402.6419677734375" x="972.3871459960938" class="er relationshipLabelBox"></rect><text style="text-anchor: middle; dominant-baseline: middle; font-size: 12px;" y="409.6419677734375" x="989.9612426757812" id="rel4" class="er relationshipLabel">places</text><rect height="14" width="21.28125" y="168.39707946777344" x="917.0590209960938" class="er relationshipLabelBox"></rect><text style="text-anchor: middle; dominant-baseline: middle; font-size: 12px;" y="175.39707946777344" x="927.6996459960938" id="rel5" class="er relationshipLabel">is_a</text><rect height="14" width="28.6441650390625" y="428.5158996582031" x="780.0552978515625" class="er relationshipLabelBox"></rect><text style="text-anchor: middle; dominant-baseline: middle; font-size: 12px;" y="435.5158996582031" x="794.3773803710938" id="rel6" class="er relationshipLabel">owns</text><rect height="14" width="82.10455322265625" y="693.3084716796875" x="240.77267456054688" class="er relationshipLabelBox"></rect><text style="text-anchor: middle; dominant-baseline: middle; font-size: 12px;" y="700.3084716796875" x="281.824951171875" id="rel7" class="er relationshipLabel">categorized_by</text><rect height="14" width="59.859375" y="665.47216796875" x="636.427734375" class="er relationshipLabelBox"></rect><text style="text-anchor: middle; dominant-baseline: middle; font-size: 12px;" y="672.47216796875" x="666.357421875" id="rel8" class="er relationshipLabel">belongs_to</text><rect height="14" width="46.728271484375" y="684.8351440429688" x="414.5926513671875" class="er relationshipLabelBox"></rect><text style="text-anchor: middle; dominant-baseline: middle; font-size: 12px;" y="691.8351440429688" x="437.956787109375" id="rel9" class="er relationshipLabel">contains</text><rect height="14" width="44.92828369140625" y="641.4190063476562" x="835.8531799316406" class="er relationshipLabelBox"></rect><text style="text-anchor: middle; dominant-baseline: middle; font-size: 12px;" y="648.4190063476562" x="858.3173217773438" id="rel10" class="er relationshipLabel">chooses</text><rect height="14" width="46.3682861328125" y="659.6680297851562" x="1045.7941284179688" class="er relationshipLabelBox"></rect><text style="text-anchor: middle; dominant-baseline: middle; font-size: 12px;" y="666.6680297851562" x="1068.978271484375" id="rel11" class="er relationshipLabel">includes</text><rect height="14" width="44.62823486328125" y="658.8456420898438" x="911.1650695800781" class="er relationshipLabelBox"></rect><text style="text-anchor: middle; dominant-baseline: middle; font-size: 12px;" y="665.8456420898438" x="933.4791870117188" id="rel12" class="er relationshipLabel">receives</text></svg>